<?xml version="1.0" encoding="UTF-8"?>
<svg width="221px" height="221px" viewBox="0 0 221 221" version="1.1" xmlns="http://www.w3.org/2000/svg" xmlns:xlink="http://www.w3.org/1999/xlink">
    <path d="M110.999998,55.0539986 L96.8285143,68.5674982 L66,68.5669986 L66,220.819594 L48,200.771093 L48,55.0539986 L110.999998,55.0539986 Z" fill="#83BCFF"></path>
    <path d="M110.099998,1 C144.39688,1 172.199997,28.8309194 172.199997,63.1620984 C172.199997,87.0765279 158.709247,107.836873 138.930261,118.233417 C136.922273,112.78966 134.051346,107.767347 130.483007,103.330793 C145.09228,95.8894429 155.1,80.6956533 155.1,63.1620984 C155.1,38.2844325 134.952811,18.1170995 110.1,18.1170995 C89.2941785,18.1170995 71.7862478,32.251163 66.6360144,51.4504224 L49.100631,51.449813 C54.5732476,22.7180288 79.802898,1 110.099998,1 Z" id="Combined-Shape" fill="#FF8493"></path>
    <path d="M92.0000002,90.1098901 C116.852814,90.1098901 137,110.257076 137,135.10989 C137,159.962704 116.852814,180.10989 92.0000002,180.10989 C84.0092446,180.10989 76.5049433,178.027131 70.0003452,174.374863 L69.999288,158.63111 C75.6284401,163.890696 83.1882786,167.10989 91.5000002,167.10989 C108.89697,167.10989 123,153.00686 123,135.60989 C123,118.21292 108.89697,104.10989 91.5000002,104.10989 C83.1882786,104.10989 75.6284401,107.329085 69.999288,112.58867 L70.0003452,95.8449176 C76.5049433,92.1926489 84.0092446,90.1098901 92.0000002,90.1098901 Z" id="Combined-Shape" fill="#D9F3BD"></path>
</svg>